<svg width="122" height="55" viewBox="0 0 122 55" xmlns="http://www.w3.org/2000/svg"><title>logo</title><g fill="none" fill-rule="evenodd"><path d="M12.678 49.143a37.735 37.735 0 0 0-1.486-2.22 38.713 38.713 0 0 0-1.861-2.386 41.46 41.46 0 0 0-2.086-2.295 22.22 22.22 0 0 0-2.161-1.948v8.849H.401v-20.93h4.683v7.913a147.103 147.103 0 0 0 3.677-4.032 753.296 753.296 0 0 1 3.437-3.881h5.554a151.929 151.929 0 0 1-8.796 9.635c1.661 1.389 3.267 3.04 4.818 4.953a59.375 59.375 0 0 1 4.458 6.342h-5.554zm17.471-11.899c-.4-.101-.871-.206-1.411-.317a8.648 8.648 0 0 0-1.741-.166c-.28 0-.615.025-1.006.076-.39.05-.685.106-.886.166v12.141h-4.473v-15.04a26.576 26.576 0 0 1 2.837-.8c1.091-.252 2.307-.378 3.647-.378.24 0 .53.015.871.045a18.366 18.366 0 0 1 2.042.302c.34.07.63.156.871.257l-.75 3.715-.001-.001zm16.331 8.305c.66 0 1.206-.055 1.636-.166.43-.111.776-.262 1.036-.453s.44-.418.54-.68c.1-.262.15-.554.15-.876 0-.685-.32-1.253-.961-1.706-.64-.453-1.741-.941-3.302-1.465a24.627 24.627 0 0 1-2.041-.831 7.522 7.522 0 0 1-1.831-1.178 5.635 5.635 0 0 1-1.321-1.721c-.34-.675-.51-1.495-.51-2.461 0-.966.18-1.837.54-2.612a5.57 5.57 0 0 1 1.531-1.978c.66-.544 1.461-.961 2.402-1.253.941-.292 2.001-.438 3.182-.438 1.401 0 2.612.151 3.632.453 1.021.302 1.861.634 2.522.997l-1.351 3.715a12.697 12.697 0 0 0-1.936-.8c-.71-.232-1.566-.347-2.567-.347-1.121 0-1.926.156-2.417.468-.49.312-.735.79-.735 1.435 0 .383.09.705.27.966.18.262.435.498.766.71.33.211.71.403 1.141.574.43.171.906.347 1.426.529 1.081.403 2.021.8 2.822 1.193.801.393 1.466.851 1.996 1.374.53.523.926 1.138 1.186 1.842.26.705.39 1.56.39 2.567 0 1.953-.68 3.468-2.041 4.545-1.361 1.077-3.412 1.616-6.154 1.616a16.92 16.92 0 0 1-2.492-.166 16.055 16.055 0 0 1-1.966-.408 11.262 11.262 0 0 1-1.471-.513c-.41-.181-.755-.352-1.036-.513l1.321-3.745c.62.342 1.386.649 2.297.921.911.272 2.026.408 3.347.408l-.001-.003zM72.657 41.2c0 1.228-.15 2.346-.45 3.352-.3 1.007-.74 1.872-1.321 2.597a5.959 5.959 0 0 1-2.161 1.691c-.861.403-1.851.604-2.972.604a7.958 7.958 0 0 1-3.302-.694v5.98h-4.473V33.8c.4-.121.861-.237 1.381-.347.52-.111 1.066-.206 1.636-.287a30.97 30.97 0 0 1 1.741-.196c.59-.05 1.156-.076 1.696-.076 1.301 0 2.462.196 3.482.589 1.021.393 1.881.946 2.582 1.661.7.715 1.236 1.586 1.606 2.612.37 1.027.555 2.174.555 3.443v.001zm-4.563.121c0-1.389-.31-2.502-.931-3.337-.62-.836-1.541-1.253-2.762-1.253-.4 0-.771.015-1.111.045-.34.03-.62.065-.841.106v8.124c.28.181.645.332 1.096.453.45.121.906.181 1.366.181 2.121 0 3.182-1.44 3.182-4.319h.001zm13.689-8.487c1.321 0 2.422.151 3.302.453.881.302 1.586.735 2.116 1.299s.906 1.248 1.126 2.054c.22.805.33 1.701.33 2.688v9.362c-.64.141-1.531.307-2.672.498-1.141.191-2.522.287-4.143.287-1.021 0-1.946-.091-2.777-.272-.831-.181-1.546-.478-2.146-.891a4.07 4.07 0 0 1-1.381-1.616c-.32-.664-.48-1.48-.48-2.446 0-.926.185-1.711.555-2.356a4.287 4.287 0 0 1 1.486-1.54 6.7 6.7 0 0 1 2.131-.831 11.9 11.9 0 0 1 2.492-.257c.58 0 1.096.025 1.546.076.45.05.816.116 1.096.196v-.423c0-.765-.23-1.379-.69-1.842-.46-.463-1.261-.695-2.402-.695-.761 0-1.511.055-2.251.166-.74.111-1.381.267-1.921.468l-.57-3.624c.26-.081.585-.166.976-.257.39-.091.816-.171 1.276-.242.46-.07.946-.131 1.456-.181.51-.05 1.026-.076 1.546-.076l-.001.002zm.36 13.168c.44 0 .861-.01 1.261-.03.4-.02.72-.05.961-.091v-3.413c-.18-.04-.45-.081-.811-.121a8.706 8.706 0 0 0-2.177.016c-.37.05-.695.146-.976.287-.28.141-.5.332-.66.574-.16.242-.24.544-.24.906 0 .705.235 1.193.705 1.465s1.116.408 1.936.408l.001-.001zm9.816-4.802c0-1.148.185-2.23.555-3.247a7.769 7.769 0 0 1 1.606-2.658 7.659 7.659 0 0 1 2.552-1.797c1.001-.443 2.141-.664 3.422-.664.841 0 1.611.076 2.312.227.7.151 1.381.367 2.041.649l-.931 3.594c-.42-.161-.881-.302-1.381-.423a7.165 7.165 0 0 0-1.681-.181c-1.321 0-2.307.413-2.957 1.238-.65.826-.976 1.913-.976 3.262 0 1.43.305 2.537.916 3.322.61.785 1.676 1.178 3.197 1.178.54 0 1.121-.05 1.741-.151a7.407 7.407 0 0 0 1.711-.483l.63 3.685c-.52.221-1.171.413-1.951.574-.781.161-1.641.242-2.582.242-1.441 0-2.682-.216-3.722-.649-1.041-.433-1.896-1.022-2.567-1.767a6.907 6.907 0 0 1-1.471-2.643c-.31-1.017-.465-2.119-.465-3.307l.001-.001zm14.259.121c0-1.409.215-2.643.645-3.7.43-1.057.996-1.938 1.696-2.643a7.05 7.05 0 0 1 2.417-1.601 7.536 7.536 0 0 1 2.807-.544c2.241 0 4.013.69 5.313 2.069 1.301 1.379 1.951 3.408 1.951 6.086 0 .262-.01.549-.03.861l-.06.831H110.81c.1.926.53 1.661 1.291 2.205.761.544 1.781.815 3.062.815.821 0 1.626-.076 2.417-.227.791-.151 1.436-.337 1.936-.559l.6 3.654a6.03 6.03 0 0 1-.961.362c-.4.121-.846.227-1.336.317a21.29 21.29 0 0 1-1.576.227c-.56.06-1.121.091-1.681.091-1.421 0-2.657-.211-3.707-.634-1.051-.423-1.921-1.002-2.612-1.737a6.909 6.909 0 0 1-1.531-2.612c-.33-1.007-.495-2.094-.495-3.262l.001.001zm10.507-1.721a4.662 4.662 0 0 0-.195-1.117 2.79 2.79 0 0 0-.51-.966 2.722 2.722 0 0 0-.871-.695c-.35-.181-.786-.272-1.306-.272-.5 0-.931.086-1.291.257-.36.171-.66.398-.901.68-.24.282-.425.609-.555.982a6.46 6.46 0 0 0-.285 1.133h5.914V39.6z" fill="#504199"/><path d="M12.678 22.143a37.735 37.735 0 0 0-1.486-2.22 38.713 38.713 0 0 0-1.861-2.386 41.46 41.46 0 0 0-2.086-2.295 22.22 22.22 0 0 0-2.161-1.948v8.849H.401V1.213h4.683v7.913a147.103 147.103 0 0 0 3.677-4.032 753.296 753.296 0 0 1 3.437-3.881h5.554a151.929 151.929 0 0 1-8.796 9.635c1.661 1.389 3.267 3.04 4.818 4.953a59.375 59.375 0 0 1 4.458 6.342h-5.554zm17.471-11.899c-.4-.101-.871-.206-1.411-.317a8.648 8.648 0 0 0-1.741-.166c-.28 0-.615.025-1.006.076-.39.05-.685.106-.886.166v12.141h-4.473V7.104a26.576 26.576 0 0 1 2.837-.8c1.091-.252 2.307-.378 3.647-.378.24 0 .53.015.871.045a18.366 18.366 0 0 1 2.042.302c.34.07.63.156.871.257l-.75 3.715-.001-.001zm16.331 8.305c.66 0 1.206-.055 1.636-.166.43-.111.776-.262 1.036-.453s.44-.418.54-.68c.1-.262.15-.554.15-.876 0-.685-.32-1.253-.961-1.706-.64-.453-1.741-.941-3.302-1.465a24.627 24.627 0 0 1-2.041-.831 7.522 7.522 0 0 1-1.831-1.178 5.635 5.635 0 0 1-1.321-1.721c-.34-.675-.51-1.495-.51-2.461 0-.966.18-1.837.54-2.612a5.57 5.57 0 0 1 1.531-1.978c.66-.544 1.461-.961 2.402-1.253.941-.292 2.001-.438 3.182-.438 1.401 0 2.612.151 3.632.453 1.021.302 1.861.634 2.522.997l-1.351 3.715a12.697 12.697 0 0 0-1.936-.8c-.71-.232-1.566-.347-2.567-.347-1.121 0-1.926.156-2.417.468-.49.312-.735.79-.735 1.435 0 .383.09.705.27.966.18.262.435.498.766.71.33.211.71.403 1.141.574.43.171.906.347 1.426.529 1.081.403 2.021.8 2.822 1.193.801.393 1.466.851 1.996 1.374.53.523.926 1.138 1.186 1.842.26.705.39 1.56.39 2.567 0 1.953-.68 3.468-2.041 4.545-1.361 1.077-3.412 1.616-6.154 1.616a16.92 16.92 0 0 1-2.492-.166 16.055 16.055 0 0 1-1.966-.408 11.262 11.262 0 0 1-1.471-.513c-.41-.181-.755-.352-1.036-.513l1.321-3.745c.62.342 1.386.649 2.297.921.911.272 2.026.408 3.347.408l-.001-.003zM72.657 14.2c0 1.228-.15 2.346-.45 3.352-.3 1.007-.74 1.872-1.321 2.597a5.959 5.959 0 0 1-2.161 1.691c-.861.403-1.851.604-2.972.604a7.958 7.958 0 0 1-3.302-.694v5.98h-4.473V6.8c.4-.121.861-.237 1.381-.347.52-.111 1.066-.206 1.636-.287a30.97 30.97 0 0 1 1.741-.196c.59-.05 1.156-.076 1.696-.076 1.301 0 2.462.196 3.482.589 1.021.393 1.881.946 2.582 1.661.7.715 1.236 1.586 1.606 2.612.37 1.027.555 2.174.555 3.443v.001zm-4.563.121c0-1.389-.31-2.502-.931-3.337-.62-.836-1.541-1.253-2.762-1.253-.4 0-.771.015-1.111.045-.34.03-.62.065-.841.106v8.124c.28.181.645.332 1.096.453.45.121.906.181 1.366.181 2.121 0 3.182-1.44 3.182-4.319h.001zm13.689-8.487c1.321 0 2.422.151 3.302.453.881.302 1.586.735 2.116 1.299s.906 1.248 1.126 2.054c.22.805.33 1.701.33 2.688v9.362c-.64.141-1.531.307-2.672.498-1.141.191-2.522.287-4.143.287-1.021 0-1.946-.091-2.777-.272-.831-.181-1.546-.478-2.146-.891a4.07 4.07 0 0 1-1.381-1.616c-.32-.664-.48-1.48-.48-2.446 0-.926.185-1.711.555-2.356a4.287 4.287 0 0 1 1.486-1.54 6.7 6.7 0 0 1 2.131-.831 11.9 11.9 0 0 1 2.492-.257c.58 0 1.096.025 1.546.076.45.05.816.116 1.096.196v-.423c0-.765-.23-1.379-.69-1.842-.46-.463-1.261-.695-2.402-.695-.761 0-1.511.055-2.251.166-.74.111-1.381.267-1.921.468l-.57-3.624c.26-.081.585-.166.976-.257.39-.091.816-.171 1.276-.242.46-.07.946-.131 1.456-.181.51-.05 1.026-.076 1.546-.076l-.001.002zm.36 13.168c.44 0 .861-.01 1.261-.03.4-.02.72-.05.961-.091v-3.413c-.18-.04-.45-.081-.811-.121a8.706 8.706 0 0 0-2.177.016c-.37.05-.695.146-.976.287-.28.141-.5.332-.66.574-.16.242-.24.544-.24.906 0 .705.235 1.193.705 1.465s1.116.408 1.936.408l.001-.001zm9.816-4.802c0-1.148.185-2.23.555-3.247a7.769 7.769 0 0 1 1.606-2.658 7.659 7.659 0 0 1 2.552-1.797c1.001-.443 2.141-.664 3.422-.664.841 0 1.611.076 2.312.227.7.151 1.381.367 2.041.649l-.931 3.594c-.42-.161-.881-.302-1.381-.423a7.165 7.165 0 0 0-1.681-.181c-1.321 0-2.307.413-2.957 1.238-.65.826-.976 1.913-.976 3.262 0 1.43.305 2.537.916 3.322.61.785 1.676 1.178 3.197 1.178.54 0 1.121-.05 1.741-.151a7.407 7.407 0 0 0 1.711-.483l.63 3.685c-.52.221-1.171.413-1.951.574-.781.161-1.641.242-2.582.242-1.441 0-2.682-.216-3.722-.649-1.041-.433-1.896-1.022-2.567-1.767a6.907 6.907 0 0 1-1.471-2.643c-.31-1.017-.465-2.119-.465-3.307l.001-.001zm14.259.121c0-1.409.215-2.643.645-3.7.43-1.057.996-1.938 1.696-2.643a7.05 7.05 0 0 1 2.417-1.601 7.536 7.536 0 0 1 2.807-.544c2.241 0 4.013.69 5.313 2.069 1.301 1.379 1.951 3.408 1.951 6.086 0 .262-.01.549-.03.861l-.06.831H110.81c.1.926.53 1.661 1.291 2.205.761.544 1.781.815 3.062.815.821 0 1.626-.076 2.417-.227.791-.151 1.436-.337 1.936-.559l.6 3.654a6.03 6.03 0 0 1-.961.362c-.4.121-.846.227-1.336.317a21.29 21.29 0 0 1-1.576.227c-.56.06-1.121.091-1.681.091-1.421 0-2.657-.211-3.707-.634-1.051-.423-1.921-1.002-2.612-1.737a6.909 6.909 0 0 1-1.531-2.612c-.33-1.007-.495-2.094-.495-3.262l.001.001zm10.507-1.721a4.662 4.662 0 0 0-.195-1.117 2.79 2.79 0 0 0-.51-.966 2.722 2.722 0 0 0-.871-.695c-.35-.181-.786-.272-1.306-.272-.5 0-.931.086-1.291.257-.36.171-.66.398-.901.68-.24.282-.425.609-.555.982a6.46 6.46 0 0 0-.285 1.133h5.914V12.6z" fill="#FFF"/></g></svg>