<?xml version="1.0" encoding="UTF-8" standalone="no"?>
<svg width="122px" height="55px" viewBox="0 0 122 55" version="1.1" xmlns="http://www.w3.org/2000/svg" xmlns:xlink="http://www.w3.org/1999/xlink" xmlns:sketch="http://www.bohemiancoding.com/sketch/ns">
    <!-- Generator: Sketch Beta 3.0.2 (7799) - http://www.bohemiancoding.com/sketch -->
    <title>logo</title>
    <description>Created with Sketch Beta.</description>
    <defs></defs>
    <g id="Page-1" stroke="none" stroke-width="1" fill="none" fill-rule="evenodd" sketch:type="MSPage">
        <g id="logo" sketch:type="MSLayerGroup" transform="translate(0.000000, 1.000000)">
            <g id="Page-1" sketch:type="MSShapeGroup">
                <g id="logo-blue" transform="translate(0.000000, 27.000000)" fill="#504199">
                    <path d="M12.678,21.143 C12.258,20.458 11.762,19.719 11.192,18.923 C10.622,18.128 10.001,17.332 9.331,16.537 C8.661,15.742 7.965,14.977 7.245,14.242 C6.525,13.507 5.804,12.858 5.084,12.294 L5.084,21.143 L0.401,21.143 L0.401,0.213 L5.084,0.213 L5.084,8.126 C6.305,6.837 7.531,5.493 8.761,4.094 C9.992,2.695 11.138,1.401 12.198,0.213 L17.752,0.213 C16.331,1.904 14.905,3.535 13.474,5.106 C12.043,6.676 10.537,8.257 8.956,9.848 C10.617,11.237 12.223,12.888 13.774,14.801 C15.325,16.714 16.811,18.828 18.232,21.143 L12.678,21.143 L12.678,21.143 Z M30.149,9.244 C29.749,9.143 29.278,9.038 28.738,8.927 C28.198,8.816 27.617,8.761 26.997,8.761 C26.717,8.761 26.382,8.786 25.991,8.837 C25.601,8.887 25.306,8.943 25.105,9.003 L25.105,21.144 L20.632,21.144 L20.632,6.104 C21.433,5.822 22.378,5.555 23.469,5.304 C24.56,5.052 25.776,4.926 27.116,4.926 C27.356,4.926 27.646,4.941 27.987,4.971 C28.327,5.001 28.667,5.041 29.008,5.092 C29.348,5.142 29.688,5.203 30.029,5.273 C30.369,5.343 30.659,5.429 30.9,5.53 L30.15,9.245 L30.149,9.244 L30.149,9.244 Z M46.48,17.549 C47.14,17.549 47.686,17.494 48.116,17.383 C48.546,17.272 48.892,17.121 49.152,16.93 C49.412,16.739 49.592,16.512 49.692,16.25 C49.792,15.988 49.842,15.696 49.842,15.374 C49.842,14.689 49.522,14.121 48.881,13.668 C48.241,13.215 47.14,12.727 45.579,12.203 C44.899,11.961 44.218,11.685 43.538,11.372 C42.858,11.06 42.247,10.667 41.707,10.194 C41.167,9.721 40.726,9.147 40.386,8.473 C40.046,7.798 39.876,6.978 39.876,6.012 C39.876,5.046 40.056,4.175 40.416,3.4 C40.776,2.625 41.287,1.965 41.947,1.422 C42.607,0.878 43.408,0.461 44.349,0.169 C45.29,-0.123 46.35,-0.269 47.531,-0.269 C48.932,-0.269 50.143,-0.118 51.163,0.184 C52.184,0.486 53.024,0.818 53.685,1.181 L52.334,4.896 C51.754,4.594 51.108,4.327 50.398,4.096 C49.688,3.864 48.832,3.749 47.831,3.749 C46.71,3.749 45.905,3.905 45.414,4.217 C44.924,4.529 44.679,5.007 44.679,5.652 C44.679,6.035 44.769,6.357 44.949,6.618 C45.129,6.88 45.384,7.116 45.715,7.328 C46.045,7.539 46.425,7.731 46.856,7.902 C47.286,8.073 47.762,8.249 48.282,8.431 C49.363,8.834 50.303,9.231 51.104,9.624 C51.905,10.017 52.57,10.475 53.1,10.998 C53.63,11.521 54.026,12.136 54.286,12.84 C54.546,13.545 54.676,14.4 54.676,15.407 C54.676,17.36 53.996,18.875 52.635,19.952 C51.274,21.029 49.223,21.568 46.481,21.568 C45.56,21.568 44.73,21.513 43.989,21.402 C43.249,21.291 42.593,21.155 42.023,20.994 C41.453,20.833 40.962,20.662 40.552,20.481 C40.142,20.3 39.797,20.129 39.516,19.968 L40.837,16.223 C41.457,16.565 42.223,16.872 43.134,17.144 C44.045,17.416 45.16,17.552 46.481,17.552 L46.48,17.549 L46.48,17.549 Z M72.657,13.2 C72.657,14.428 72.507,15.546 72.207,16.552 C71.907,17.559 71.467,18.424 70.886,19.149 C70.306,19.874 69.585,20.438 68.725,20.84 C67.864,21.243 66.874,21.444 65.753,21.444 C65.133,21.444 64.552,21.384 64.012,21.263 C63.472,21.142 62.951,20.971 62.451,20.75 L62.451,26.73 L57.978,26.73 L57.978,5.8 C58.378,5.679 58.839,5.563 59.359,5.453 C59.879,5.342 60.425,5.247 60.995,5.166 C61.565,5.085 62.146,5.02 62.736,4.97 C63.326,4.92 63.892,4.894 64.432,4.894 C65.733,4.894 66.894,5.09 67.914,5.483 C68.935,5.876 69.795,6.429 70.496,7.144 C71.196,7.859 71.732,8.73 72.102,9.756 C72.472,10.783 72.657,11.93 72.657,13.199 L72.657,13.2 L72.657,13.2 Z M68.094,13.321 C68.094,11.932 67.784,10.819 67.163,9.984 C66.543,9.148 65.622,8.731 64.401,8.731 C64.001,8.731 63.63,8.746 63.29,8.776 C62.95,8.806 62.67,8.841 62.449,8.882 L62.449,17.006 C62.729,17.187 63.094,17.338 63.545,17.459 C63.995,17.58 64.451,17.64 64.911,17.64 C67.032,17.64 68.093,16.2 68.093,13.321 L68.094,13.321 L68.094,13.321 Z M81.783,4.834 C83.104,4.834 84.205,4.985 85.085,5.287 C85.966,5.589 86.671,6.022 87.201,6.586 C87.731,7.15 88.107,7.834 88.327,8.64 C88.547,9.445 88.657,10.341 88.657,11.328 L88.657,20.69 C88.017,20.831 87.126,20.997 85.985,21.188 C84.844,21.379 83.463,21.475 81.842,21.475 C80.821,21.475 79.896,21.384 79.065,21.203 C78.234,21.022 77.519,20.725 76.919,20.312 C76.319,19.899 75.858,19.361 75.538,18.696 C75.218,18.032 75.058,17.216 75.058,16.25 C75.058,15.324 75.243,14.539 75.613,13.894 C75.983,13.25 76.479,12.736 77.099,12.354 C77.719,11.971 78.43,11.695 79.23,11.523 C80.031,11.352 80.861,11.266 81.722,11.266 C82.302,11.266 82.818,11.291 83.268,11.342 C83.718,11.392 84.084,11.458 84.364,11.538 L84.364,11.115 C84.364,10.35 84.134,9.736 83.674,9.273 C83.214,8.81 82.413,8.578 81.272,8.578 C80.511,8.578 79.761,8.633 79.021,8.744 C78.281,8.855 77.64,9.011 77.1,9.212 L76.53,5.588 C76.79,5.507 77.115,5.422 77.506,5.331 C77.896,5.24 78.322,5.16 78.782,5.089 C79.242,5.019 79.728,4.958 80.238,4.908 C80.748,4.858 81.264,4.832 81.784,4.832 L81.783,4.834 L81.783,4.834 Z M82.143,18.002 C82.583,18.002 83.004,17.992 83.404,17.972 C83.804,17.952 84.124,17.922 84.365,17.881 L84.365,14.468 C84.185,14.428 83.915,14.387 83.554,14.347 C83.194,14.307 82.864,14.287 82.563,14.287 C82.143,14.287 81.747,14.312 81.377,14.363 C81.007,14.413 80.682,14.509 80.401,14.65 C80.121,14.791 79.901,14.982 79.741,15.224 C79.581,15.466 79.501,15.768 79.501,16.13 C79.501,16.835 79.736,17.323 80.206,17.595 C80.676,17.867 81.322,18.003 82.142,18.003 L82.143,18.002 L82.143,18.002 Z M91.959,13.2 C91.959,12.052 92.144,10.97 92.514,9.953 C92.884,8.936 93.42,8.05 94.12,7.295 C94.82,6.54 95.671,5.941 96.672,5.498 C97.673,5.055 98.813,4.834 100.094,4.834 C100.935,4.834 101.705,4.91 102.406,5.061 C103.106,5.212 103.787,5.428 104.447,5.71 L103.516,9.304 C103.096,9.143 102.635,9.002 102.135,8.881 C101.635,8.76 101.074,8.7 100.454,8.7 C99.133,8.7 98.147,9.113 97.497,9.938 C96.847,10.764 96.521,11.851 96.521,13.2 C96.521,14.63 96.826,15.737 97.437,16.522 C98.047,17.307 99.113,17.7 100.634,17.7 C101.174,17.7 101.755,17.65 102.375,17.549 C102.995,17.448 103.566,17.287 104.086,17.066 L104.716,20.751 C104.196,20.972 103.545,21.164 102.765,21.325 C101.984,21.486 101.124,21.567 100.183,21.567 C98.742,21.567 97.501,21.351 96.461,20.918 C95.42,20.485 94.565,19.896 93.894,19.151 C93.224,18.406 92.733,17.525 92.423,16.508 C92.113,15.491 91.958,14.389 91.958,13.201 L91.959,13.2 L91.959,13.2 Z M106.218,13.321 C106.218,11.912 106.433,10.678 106.863,9.621 C107.293,8.564 107.859,7.683 108.559,6.978 C109.259,6.273 110.065,5.74 110.976,5.377 C111.887,5.015 112.822,4.833 113.783,4.833 C116.024,4.833 117.796,5.523 119.096,6.902 C120.397,8.281 121.047,10.31 121.047,12.988 C121.047,13.25 121.037,13.537 121.017,13.849 L120.957,14.68 L110.81,14.68 C110.91,15.606 111.34,16.341 112.101,16.885 C112.862,17.429 113.882,17.7 115.163,17.7 C115.984,17.7 116.789,17.624 117.58,17.473 C118.371,17.322 119.016,17.136 119.516,16.914 L120.116,20.568 C119.876,20.689 119.556,20.81 119.155,20.93 C118.755,21.051 118.309,21.157 117.819,21.247 C117.329,21.338 116.803,21.413 116.243,21.474 C115.683,21.534 115.122,21.565 114.562,21.565 C113.141,21.565 111.905,21.354 110.855,20.931 C109.804,20.508 108.934,19.929 108.243,19.194 C107.553,18.459 107.042,17.588 106.712,16.582 C106.382,15.575 106.217,14.488 106.217,13.32 L106.218,13.321 L106.218,13.321 Z M116.725,11.6 C116.705,11.217 116.64,10.845 116.53,10.483 C116.42,10.121 116.25,9.798 116.02,9.517 C115.79,9.235 115.5,9.004 115.149,8.822 C114.799,8.641 114.363,8.55 113.843,8.55 C113.343,8.55 112.912,8.636 112.552,8.807 C112.192,8.978 111.892,9.205 111.651,9.487 C111.411,9.769 111.226,10.096 111.096,10.469 C110.966,10.841 110.871,11.219 110.811,11.602 L116.725,11.602 L116.725,11.6 L116.725,11.6 Z" id="Shape"></path>
                </g>
                <g id="logo" fill="#FFFFFF">
                    <path d="M12.678,21.143 C12.258,20.458 11.762,19.719 11.192,18.923 C10.622,18.128 10.001,17.332 9.331,16.537 C8.661,15.742 7.965,14.977 7.245,14.242 C6.525,13.507 5.804,12.858 5.084,12.294 L5.084,21.143 L0.401,21.143 L0.401,0.213 L5.084,0.213 L5.084,8.126 C6.305,6.837 7.531,5.493 8.761,4.094 C9.992,2.695 11.138,1.401 12.198,0.213 L17.752,0.213 C16.331,1.904 14.905,3.535 13.474,5.106 C12.043,6.676 10.537,8.257 8.956,9.848 C10.617,11.237 12.223,12.888 13.774,14.801 C15.325,16.714 16.811,18.828 18.232,21.143 L12.678,21.143 L12.678,21.143 Z M30.149,9.244 C29.749,9.143 29.278,9.038 28.738,8.927 C28.198,8.816 27.617,8.761 26.997,8.761 C26.717,8.761 26.382,8.786 25.991,8.837 C25.601,8.887 25.306,8.943 25.105,9.003 L25.105,21.144 L20.632,21.144 L20.632,6.104 C21.433,5.822 22.378,5.555 23.469,5.304 C24.56,5.052 25.776,4.926 27.116,4.926 C27.356,4.926 27.646,4.941 27.987,4.971 C28.327,5.001 28.667,5.041 29.008,5.092 C29.348,5.142 29.688,5.203 30.029,5.273 C30.369,5.343 30.659,5.429 30.9,5.53 L30.15,9.245 L30.149,9.244 L30.149,9.244 Z M46.48,17.549 C47.14,17.549 47.686,17.494 48.116,17.383 C48.546,17.272 48.892,17.121 49.152,16.93 C49.412,16.739 49.592,16.512 49.692,16.25 C49.792,15.988 49.842,15.696 49.842,15.374 C49.842,14.689 49.522,14.121 48.881,13.668 C48.241,13.215 47.14,12.727 45.579,12.203 C44.899,11.961 44.218,11.685 43.538,11.372 C42.858,11.06 42.247,10.667 41.707,10.194 C41.167,9.721 40.726,9.147 40.386,8.473 C40.046,7.798 39.876,6.978 39.876,6.012 C39.876,5.046 40.056,4.175 40.416,3.4 C40.776,2.625 41.287,1.965 41.947,1.422 C42.607,0.878 43.408,0.461 44.349,0.169 C45.29,-0.123 46.35,-0.269 47.531,-0.269 C48.932,-0.269 50.143,-0.118 51.163,0.184 C52.184,0.486 53.024,0.818 53.685,1.181 L52.334,4.896 C51.754,4.594 51.108,4.327 50.398,4.096 C49.688,3.864 48.832,3.749 47.831,3.749 C46.71,3.749 45.905,3.905 45.414,4.217 C44.924,4.529 44.679,5.007 44.679,5.652 C44.679,6.035 44.769,6.357 44.949,6.618 C45.129,6.88 45.384,7.116 45.715,7.328 C46.045,7.539 46.425,7.731 46.856,7.902 C47.286,8.073 47.762,8.249 48.282,8.431 C49.363,8.834 50.303,9.231 51.104,9.624 C51.905,10.017 52.57,10.475 53.1,10.998 C53.63,11.521 54.026,12.136 54.286,12.84 C54.546,13.545 54.676,14.4 54.676,15.407 C54.676,17.36 53.996,18.875 52.635,19.952 C51.274,21.029 49.223,21.568 46.481,21.568 C45.56,21.568 44.73,21.513 43.989,21.402 C43.249,21.291 42.593,21.155 42.023,20.994 C41.453,20.833 40.962,20.662 40.552,20.481 C40.142,20.3 39.797,20.129 39.516,19.968 L40.837,16.223 C41.457,16.565 42.223,16.872 43.134,17.144 C44.045,17.416 45.16,17.552 46.481,17.552 L46.48,17.549 L46.48,17.549 Z M72.657,13.2 C72.657,14.428 72.507,15.546 72.207,16.552 C71.907,17.559 71.467,18.424 70.886,19.149 C70.306,19.874 69.585,20.438 68.725,20.84 C67.864,21.243 66.874,21.444 65.753,21.444 C65.133,21.444 64.552,21.384 64.012,21.263 C63.472,21.142 62.951,20.971 62.451,20.75 L62.451,26.73 L57.978,26.73 L57.978,5.8 C58.378,5.679 58.839,5.563 59.359,5.453 C59.879,5.342 60.425,5.247 60.995,5.166 C61.565,5.085 62.146,5.02 62.736,4.97 C63.326,4.92 63.892,4.894 64.432,4.894 C65.733,4.894 66.894,5.09 67.914,5.483 C68.935,5.876 69.795,6.429 70.496,7.144 C71.196,7.859 71.732,8.73 72.102,9.756 C72.472,10.783 72.657,11.93 72.657,13.199 L72.657,13.2 L72.657,13.2 Z M68.094,13.321 C68.094,11.932 67.784,10.819 67.163,9.984 C66.543,9.148 65.622,8.731 64.401,8.731 C64.001,8.731 63.63,8.746 63.29,8.776 C62.95,8.806 62.67,8.841 62.449,8.882 L62.449,17.006 C62.729,17.187 63.094,17.338 63.545,17.459 C63.995,17.58 64.451,17.64 64.911,17.64 C67.032,17.64 68.093,16.2 68.093,13.321 L68.094,13.321 L68.094,13.321 Z M81.783,4.834 C83.104,4.834 84.205,4.985 85.085,5.287 C85.966,5.589 86.671,6.022 87.201,6.586 C87.731,7.15 88.107,7.834 88.327,8.64 C88.547,9.445 88.657,10.341 88.657,11.328 L88.657,20.69 C88.017,20.831 87.126,20.997 85.985,21.188 C84.844,21.379 83.463,21.475 81.842,21.475 C80.821,21.475 79.896,21.384 79.065,21.203 C78.234,21.022 77.519,20.725 76.919,20.312 C76.319,19.899 75.858,19.361 75.538,18.696 C75.218,18.032 75.058,17.216 75.058,16.25 C75.058,15.324 75.243,14.539 75.613,13.894 C75.983,13.25 76.479,12.736 77.099,12.354 C77.719,11.971 78.43,11.695 79.23,11.523 C80.031,11.352 80.861,11.266 81.722,11.266 C82.302,11.266 82.818,11.291 83.268,11.342 C83.718,11.392 84.084,11.458 84.364,11.538 L84.364,11.115 C84.364,10.35 84.134,9.736 83.674,9.273 C83.214,8.81 82.413,8.578 81.272,8.578 C80.511,8.578 79.761,8.633 79.021,8.744 C78.281,8.855 77.64,9.011 77.1,9.212 L76.53,5.588 C76.79,5.507 77.115,5.422 77.506,5.331 C77.896,5.24 78.322,5.16 78.782,5.089 C79.242,5.019 79.728,4.958 80.238,4.908 C80.748,4.858 81.264,4.832 81.784,4.832 L81.783,4.834 L81.783,4.834 Z M82.143,18.002 C82.583,18.002 83.004,17.992 83.404,17.972 C83.804,17.952 84.124,17.922 84.365,17.881 L84.365,14.468 C84.185,14.428 83.915,14.387 83.554,14.347 C83.194,14.307 82.864,14.287 82.563,14.287 C82.143,14.287 81.747,14.312 81.377,14.363 C81.007,14.413 80.682,14.509 80.401,14.65 C80.121,14.791 79.901,14.982 79.741,15.224 C79.581,15.466 79.501,15.768 79.501,16.13 C79.501,16.835 79.736,17.323 80.206,17.595 C80.676,17.867 81.322,18.003 82.142,18.003 L82.143,18.002 L82.143,18.002 Z M91.959,13.2 C91.959,12.052 92.144,10.97 92.514,9.953 C92.884,8.936 93.42,8.05 94.12,7.295 C94.82,6.54 95.671,5.941 96.672,5.498 C97.673,5.055 98.813,4.834 100.094,4.834 C100.935,4.834 101.705,4.91 102.406,5.061 C103.106,5.212 103.787,5.428 104.447,5.71 L103.516,9.304 C103.096,9.143 102.635,9.002 102.135,8.881 C101.635,8.76 101.074,8.7 100.454,8.7 C99.133,8.7 98.147,9.113 97.497,9.938 C96.847,10.764 96.521,11.851 96.521,13.2 C96.521,14.63 96.826,15.737 97.437,16.522 C98.047,17.307 99.113,17.7 100.634,17.7 C101.174,17.7 101.755,17.65 102.375,17.549 C102.995,17.448 103.566,17.287 104.086,17.066 L104.716,20.751 C104.196,20.972 103.545,21.164 102.765,21.325 C101.984,21.486 101.124,21.567 100.183,21.567 C98.742,21.567 97.501,21.351 96.461,20.918 C95.42,20.485 94.565,19.896 93.894,19.151 C93.224,18.406 92.733,17.525 92.423,16.508 C92.113,15.491 91.958,14.389 91.958,13.201 L91.959,13.2 L91.959,13.2 Z M106.218,13.321 C106.218,11.912 106.433,10.678 106.863,9.621 C107.293,8.564 107.859,7.683 108.559,6.978 C109.259,6.273 110.065,5.74 110.976,5.377 C111.887,5.015 112.822,4.833 113.783,4.833 C116.024,4.833 117.796,5.523 119.096,6.902 C120.397,8.281 121.047,10.31 121.047,12.988 C121.047,13.25 121.037,13.537 121.017,13.849 L120.957,14.68 L110.81,14.68 C110.91,15.606 111.34,16.341 112.101,16.885 C112.862,17.429 113.882,17.7 115.163,17.7 C115.984,17.7 116.789,17.624 117.58,17.473 C118.371,17.322 119.016,17.136 119.516,16.914 L120.116,20.568 C119.876,20.689 119.556,20.81 119.155,20.93 C118.755,21.051 118.309,21.157 117.819,21.247 C117.329,21.338 116.803,21.413 116.243,21.474 C115.683,21.534 115.122,21.565 114.562,21.565 C113.141,21.565 111.905,21.354 110.855,20.931 C109.804,20.508 108.934,19.929 108.243,19.194 C107.553,18.459 107.042,17.588 106.712,16.582 C106.382,15.575 106.217,14.488 106.217,13.32 L106.218,13.321 L106.218,13.321 Z M116.725,11.6 C116.705,11.217 116.64,10.845 116.53,10.483 C116.42,10.121 116.25,9.798 116.02,9.517 C115.79,9.235 115.5,9.004 115.149,8.822 C114.799,8.641 114.363,8.55 113.843,8.55 C113.343,8.55 112.912,8.636 112.552,8.807 C112.192,8.978 111.892,9.205 111.651,9.487 C111.411,9.769 111.226,10.096 111.096,10.469 C110.966,10.841 110.871,11.219 110.811,11.602 L116.725,11.602 L116.725,11.6 L116.725,11.6 Z" id="Shape"></path>
                </g>
            </g>
        </g>
    </g>
</svg>