<?xml version="1.0" encoding="UTF-8" standalone="no"?>
<svg viewBox="0 0 420 273" version="1.1" xmlns="http://www.w3.org/2000/svg" xmlns:xlink="http://www.w3.org/1999/xlink" xmlns:sketch="http://www.bohemiancoding.com/sketch/ns">
    <defs></defs>
    <g id="logo" stroke="none" stroke-width="1" fill="none" fill-rule="evenodd" sketch:type="MSPage">
        <g id="headline-logo" sketch:type="MSLayerGroup" transform="translate(1.000000, 0.000000)" fill="#FFFFFF">
            <path d="M209.282032,0 L278.564064,40.1606426 L278.564064,120.481928 L209.282032,160.64257 L140,120.481928 L140,40.1606426 L209.282032,0 L209.282032,0 Z M207.687659,86.3408618 L207.68766,137.685981 L160.978332,110.816949 L160.978332,58.6606138 L207.687659,86.3408618 L207.687659,86.3408618 Z M210.887006,86.3310456 L210.887006,137.678245 L257.578257,110.766925 L257.578257,58.6501423 L210.887006,86.3310456 L210.887006,86.3310456 Z M209.188246,26.5540474 L257.584084,54.8637251 L209.188246,83.1734029 L160.983346,54.7287677 L209.188246,26.5540474 L209.188246,26.5540474 Z" id="Polygon-1"></path>
                    <path d="M154.817652,221.91192 L154.817652,214.679163 L164.094449,214.679163 L164.094449,211.377252 L151.515742,211.377252 L151.515742,210.591083 L164.094449,210.591083 L164.094449,207.446406 L164.880619,207.446406 L164.880619,210.591083 L177.616561,210.591083 L177.616561,211.377252 L164.880619,211.377252 L164.880619,214.679163 L174.157416,214.679163 L174.157416,221.91192 L168.025296,221.91192 L168.025296,225.842766 C167.920473,227.519936 168.811456,228.306097 170.698271,228.201274 L173.214013,228.201274 C175.415298,228.201274 176.568334,227.467523 176.673157,226 C176.777981,225.790354 176.830391,225.318657 176.830391,224.584895 C176.935214,223.955957 176.987625,223.48426 176.987625,223.169791 L177.773794,223.169791 C177.773794,223.48426 177.721384,224.008368 177.616561,224.742129 C177.616561,225.475891 177.56415,225.895177 177.459327,226 C177.24968,228.096462 175.83459,229.092266 173.214013,228.987443 L170.698271,228.987443 C168.392163,228.987443 167.239126,227.939228 167.239126,225.842766 L167.239126,221.91192 L161.107006,221.91192 L160.949772,222.540855 C161.159419,225.895194 157.909952,228.306089 151.201274,229.773612 L151.04404,229.144677 C157.543072,227.572331 160.582896,225.318668 160.163603,222.383621 L160.320837,221.91192 L154.817652,221.91192 L154.817652,221.91192 Z M155.603822,215.465332 L155.603822,221.125751 L173.371247,221.125751 L173.371247,215.465332 L155.603822,215.465332 L155.603822,215.465332 Z M153.717016,206.503003 L153.717016,205.716833 L181.232939,205.716833 L181.232939,213.421292 C181.232939,220.234793 181.599814,224.637297 182.333576,226.628935 C182.857691,227.886812 183.486621,228.515742 184.220382,228.515742 C185.16379,228.620565 185.792719,227.886814 186.107188,226.314468 C186.421658,225.266237 186.683711,223.536682 186.893358,221.125751 L187.679527,221.125751 C187.469881,223.222212 187.207827,225.004178 186.893358,226.471702 C186.474065,228.46334 185.583082,229.459145 184.220382,229.459145 C183.067328,229.459145 182.228756,228.620573 181.704641,226.943403 C180.866056,224.846941 180.44677,220.339616 180.44677,213.421292 L180.44677,206.503003 L153.717016,206.503003 L153.717016,206.503003 Z M150.572339,205.087898 C154.765262,201.733559 157.857497,197.855163 159.849136,193.452593 L160.478071,193.767061 C160.058779,194.920115 159.42985,196.073152 158.591265,197.226206 L186.264422,197.226206 L186.264422,198.012375 L158.119563,198.012375 C156.023101,201.157068 153.664617,203.725195 151.04404,205.716833 L150.572339,205.087898 L150.572339,205.087898 Z M157.647862,201.314286 L183.434213,201.314286 L183.434213,202.100455 L157.647862,202.100455 L157.647862,201.314286 L157.647862,201.314286 Z M196.012921,214.364695 L222.585441,214.364695 L222.585441,215.150864 L209.692266,215.150864 L209.692266,226.786169 L226.830755,226.786169 L226.830755,227.572338 L191.924841,227.572338 L191.924841,226.786169 L208.906096,226.786169 L208.906096,215.150864 L196.012921,215.150864 L196.012921,214.364695 L196.012921,214.364695 Z M225.572884,199.270246 L225.572884,206.503003 L224.786715,206.503003 L224.786715,200.056415 L193.968881,200.056415 L193.968881,206.503003 L193.182712,206.503003 L193.182712,199.270246 L225.572884,199.270246 L225.572884,199.270246 Z M191.767607,212.949591 C196.799115,210.119367 201.201619,207.131954 204.97525,203.987261 L205.446952,204.616197 C202.092613,207.44642 197.690109,210.433833 192.239308,213.578526 L191.767607,212.949591 L191.767607,212.949591 Z M213.93758,204.616197 L214.409281,203.987261 L227.145223,212.635123 L226.830755,213.264058 L213.93758,204.616197 L213.93758,204.616197 Z M207.805459,193.609827 L208.591629,193.295359 L211.10737,198.64131 L210.321201,198.955778 L207.805459,193.609827 L207.805459,193.609827 Z M241.767971,204.458963 L257.334122,204.458963 L257.334122,221.91192 L241.767971,221.91192 L241.767971,204.458963 L241.767971,204.458963 Z M256.705187,205.087898 L242.55414,205.087898 L242.55414,212.949591 L256.705187,212.949591 L256.705187,205.087898 L256.705187,205.087898 Z M242.55414,221.282985 L256.705187,221.282985 L256.705187,213.578526 L242.55414,213.578526 L242.55414,221.282985 L242.55414,221.282985 Z M244.912648,196.754504 L265.353048,196.754504 L265.353048,224.427662 C265.562694,228.09647 263.833139,229.826025 260.164331,229.616379 L257.334122,229.616379 C255.971422,229.511555 254.975617,229.459145 254.346679,229.459145 L254.346679,228.672975 L260.164331,228.672975 C263.413847,228.987445 264.881348,227.572354 264.566879,224.427662 L264.566879,197.540673 L244.912648,197.540673 L244.912648,196.754504 L244.912648,196.754504 Z M233.749045,201.157052 L234.535214,201.157052 L234.535214,229.930846 L233.749045,229.930846 L233.749045,201.157052 L233.749045,201.157052 Z M235.006915,194.238763 L235.478617,193.767061 L241.610737,200.056415 L241.139035,200.528116 L235.006915,194.238763 L235.006915,194.238763 Z" id="氪空间"></path>
                    <path d="M2.85215762,256.280671 L12.2683235,256.280671 C12.2683235,259.41941 12.2290899,261.224157 12.1506215,261.694967 C12.2290899,263.892083 11.3267163,264.951392 9.44347375,264.872923 L6.85402813,264.872923 L6.85402813,264.284412 L9.44347375,264.284412 C10.9343741,264.441349 11.6798132,263.57821 11.6798132,261.694967 L11.6798132,256.869182 L3.440668,256.869182 L3.440668,268.050879 C3.36219956,270.01259 4.30380672,270.954197 6.26551776,270.875729 L10.6204945,270.875729 C12.8176108,271.032666 13.9553862,270.20876 14.0338546,268.403986 C14.1907915,267.305428 14.2692588,266.206886 14.2692588,265.108327 L14.8577691,265.108327 C14.8577691,266.285353 14.7793019,267.383896 14.622365,268.403986 C14.4654281,270.522633 13.1314846,271.542707 10.6204945,271.464239 L6.26551776,271.464239 C3.98993295,271.464239 2.85215762,270.326464 2.85215762,268.050879 L2.85215762,256.280671 L2.85215762,256.280671 Z M24.6270412,246.040592 L25.2155516,246.040592 L25.2155516,268.286283 C25.3724885,270.875741 24.1562459,272.091985 21.5667874,271.935047 L18.6242355,271.935047 L18.6242355,271.346537 C18.9381092,271.346537 19.4481465,271.38577 20.1543624,271.464239 L21.5667874,271.464239 C23.8423722,271.699644 24.8624465,270.640337 24.6270412,268.286283 L24.6270412,246.040592 L24.6270412,246.040592 Z M-0.090394214,256.751479 C3.83302785,253.2204 6.61861575,249.493205 8.26645301,245.569782 L8.85496339,245.805187 C8.61955805,246.275998 8.38415627,246.746802 8.14875094,247.217611 L15.9170878,255.57446 L15.4462795,255.927565 L7.91334679,247.806122 C5.79469887,251.572607 3.24451278,254.672064 0.262712007,257.104586 L-0.090394214,256.751479 L-0.090394214,256.751479 Z M18.5065334,248.865441 L19.0950438,248.865441 L19.0950438,265.814539 L18.5065334,265.814539 L18.5065334,248.865441 L18.5065334,248.865441 Z M46.9904353,245.92289 L47.5789457,245.92289 L47.5789457,270.169516 L57.4659197,270.169516 L57.4659197,270.758026 L30.1590386,270.758026 L30.1590386,270.169516 L40.0460129,270.169516 L40.0460129,245.92289 L40.6345233,245.92289 L40.6345233,270.169516 L46.9904353,270.169516 L46.9904353,245.92289 L46.9904353,245.92289 Z M50.6391995,263.107393 C51.1100103,262.087302 52.0516173,260.086386 53.4640492,257.104586 C54.641076,254.672064 55.3865149,253.141953 55.7003888,252.514205 L56.171197,252.749609 C54.8372335,255.652942 53.1501874,259.183969 51.1100079,263.342796 L50.6391995,263.107393 L50.6391995,263.107393 Z M31.4537615,252.631907 L32.0422719,252.396504 L32.159974,252.631907 C32.5523162,253.416592 33.2977552,254.985937 34.3963134,257.33999 C35.6518085,260.164854 36.5149483,262.048069 36.9857589,262.98969 L36.3972487,263.225093 C35.6125642,261.420319 34.0039853,257.96776 31.5714636,252.867312 L31.4537615,252.631907 L31.4537615,252.631907 Z M77.004464,262.048074 L77.4752723,261.694967 C78.1030199,262.55812 79.5546643,264.4021 81.8302491,267.226965 C83.7919601,269.737955 85.1259035,271.425001 85.8321196,272.288153 L85.3613112,272.64126 L82.8895678,269.581005 C82.4187571,269.581005 79.4370011,269.698706 73.9442101,269.934113 C67.9021401,270.09105 64.6849823,270.208751 64.29264,270.287218 C63.9787663,270.287218 63.4687291,270.326451 62.7625131,270.404921 L62.644811,269.934113 C63.4294955,269.934113 63.7825982,269.855645 63.7041296,269.698708 C67.7844886,265.382943 70.9624129,260.91031 73.2379977,256.280671 L73.8265081,256.516076 C71.5509233,260.988777 68.4122327,265.422178 64.4103421,269.81641 C65.273495,269.737942 69.0399237,269.581007 75.7097412,269.345602 C79.4762264,269.188665 81.7125434,269.110197 82.4187595,269.110197 C81.5556066,268.011639 80.3001303,266.40306 78.6522931,264.284412 C77.8676087,263.185854 77.3183377,262.440416 77.004464,262.048074 L77.004464,262.048074 Z M77.1221661,246.393698 L77.7106765,246.158293 C80.0647297,251.494148 83.4388221,255.770612 87.8330548,258.987819 L87.4799487,259.458627 C83.0857158,256.31989 79.6331563,251.964957 77.1221661,246.393698 L77.1221661,246.393698 Z M60.0553655,259.105521 C64.1357244,255.966784 67.588284,251.729551 70.413148,246.393698 L70.8839562,246.629101 C68.2944976,251.808019 64.841938,256.123718 60.5261737,259.576329 L60.0553655,259.105521 L60.0553655,259.105521 Z M92.5411378,247.923824 L115.610744,247.923824 L115.610744,268.403986 C115.610744,269.737949 115.336109,270.71879 114.78683,271.346537 C114.159082,271.974285 113.099774,272.288153 111.608874,272.288153 L109.72564,272.288153 C108.627082,272.209685 107.84241,272.170452 107.371599,272.170452 L107.371599,271.581942 C107.84241,271.581942 108.627082,271.621175 109.72564,271.699643 L111.608874,271.699643 C113.021306,271.699643 113.923679,271.425008 114.316021,270.875729 C114.786832,270.404918 115.022234,269.581012 115.022234,268.403986 L115.022234,248.512335 L92.5411378,248.512335 L92.5411378,247.923824 L92.5411378,247.923824 Z M93.7181586,258.634713 L108.54862,258.634713 L108.54862,267.462368 L94.3066689,267.462368 L94.3066689,269.581005 L93.7181586,269.581005 L93.7181586,258.634713 L93.7181586,258.634713 Z M108.077811,259.223224 L94.3066689,259.223224 L94.3066689,266.873857 L108.077811,266.873857 L108.077811,259.223224 L108.077811,259.223224 Z M90.7756067,253.455822 L111.608874,253.455822 L111.608874,254.044333 L90.7756067,254.044333 L90.7756067,253.455822 L90.7756067,253.455822 Z M129.028781,263.813604 L129.146483,261.812669 L120.789635,261.812669 L120.789635,261.224159 L147.74341,261.224159 L147.74341,261.812669 L137.856436,261.812669 L137.856436,268.521687 C137.699499,270.483398 138.719574,271.425006 140.91669,271.346537 L142.917625,271.346537 C145.507084,271.425006 146.880261,270.561866 147.037198,268.757092 C147.115666,268.443217 147.1549,267.972414 147.1549,267.344667 C147.233368,266.716919 147.272602,266.246115 147.272602,265.932241 L147.74341,265.932241 C147.74341,266.55999 147.664943,267.383896 147.508006,268.403986 L147.508006,268.874794 C147.351069,270.914973 145.820958,271.895814 142.917625,271.817345 L140.91669,271.817345 C138.327231,271.895814 137.110989,270.797272 137.267926,268.521687 L137.267926,261.812669 L129.734993,261.812669 L129.617291,263.813604 C129.538823,267.737026 126.674767,270.758015 121.02504,272.876664 L120.789635,272.405856 C126.125489,270.365677 128.871844,267.501622 129.028781,263.813604 L129.028781,263.813604 Z M133.030651,245.805187 L133.501459,245.569782 L135.384693,249.336249 L146.448688,249.336249 L146.448688,254.044333 L145.860177,254.044333 L145.860177,249.924759 L122.555167,249.924759 L122.555167,254.279736 L122.084358,254.279736 L122.084358,249.336249 L134.796182,249.336249 L133.030651,245.805187 L133.030651,245.805187 Z M124.556102,255.221352 L143.976944,255.221352 L143.976944,255.692161 L124.556102,255.692161 L124.556102,255.221352 L124.556102,255.221352 Z M162.691573,258.281608 L162.45617,265.579136 C162.45617,268.168594 161.200694,269.384837 158.689703,269.2279 L156.100258,269.2279 L156.100258,268.639389 L158.689703,268.639389 C160.88682,268.796326 161.946127,267.737019 161.867659,265.461433 L162.103063,258.870116 L154.452429,258.870116 L154.452429,259.811734 C154.609365,265.147587 153.432356,269.502522 150.921366,272.876664 L150.450558,272.523558 C152.88308,269.306352 154.020855,265.06912 153.863918,259.811734 L153.863918,251.925694 L167.04655,251.925694 C166.889613,249.963984 166.771912,247.884601 166.693444,245.687485 L167.281955,245.687485 C167.360423,247.884601 167.478124,249.963984 167.635061,251.925694 L177.992844,251.925694 L177.992844,252.514205 L167.635061,252.514205 C167.948935,257.77159 168.576672,262.08729 169.518295,265.461433 C171.793879,262.558101 173.637859,259.380177 175.050291,255.927565 L175.521099,256.16297 C173.794794,260.243328 171.872346,263.538953 169.753698,266.049944 C170.381446,267.933186 171.205352,269.424065 172.225441,270.522623 C172.931657,271.542712 173.755565,272.05275 174.697185,272.05275 C175.560339,272.05275 176.188076,271.385778 176.580418,270.051813 C177.129697,267.933167 177.443566,266.403054 177.522036,265.461433 L178.110545,265.579136 C177.639735,268.168594 177.325866,269.698706 177.168928,270.169516 C176.698119,271.817353 175.874211,272.64126 174.697185,272.64126 C173.677095,272.719728 172.696255,272.131224 171.754633,270.875729 C170.969949,270.091045 170.146043,268.678633 169.28289,266.638454 C167.79199,268.443228 165.791074,270.287209 163.280084,272.170452 L162.926978,271.699643 C165.83031,269.502526 167.909692,267.580078 169.165187,265.932241 C168.145099,263.264314 167.478127,258.79168 167.164253,252.514205 L154.452429,252.514205 L154.452429,258.281608 L162.691573,258.281608 L162.691573,258.281608 Z M170.577613,247.099911 L170.813017,246.629101 C172.69626,247.806128 174.383305,248.943904 175.874207,250.042462 L175.521099,250.51327 C174.579478,249.807054 172.931667,248.669278 170.577613,247.099911 L170.577613,247.099911 Z M183.877948,254.397439 L204.946618,254.397439 L204.946618,259.694032 L194.706537,259.694032 L194.706537,263.813604 L206.241341,263.813604 L206.005937,267.697773 C205.770532,269.34561 204.554289,270.169516 202.357173,270.169516 C200.94474,270.169516 199.493096,270.130283 198.002196,270.051813 L198.002196,269.698708 C199.493096,269.777177 200.94474,269.81641 202.357173,269.81641 C204.240415,269.894878 205.260489,269.14944 205.417426,267.58007 L205.652831,264.402115 L194.706537,264.402115 L194.706537,272.876664 L194.118027,272.876664 L194.118027,264.637519 C191.763974,267.305445 187.369808,269.62023 180.935395,271.581942 L180.699992,271.111134 C186.898998,269.149422 191.214698,266.913105 193.647219,264.402115 L183.171735,264.402115 L183.877948,259.223224 L194.118027,259.223224 L194.118027,254.985949 L183.877948,254.985949 L183.877948,254.397439 L183.877948,254.397439 Z M204.358107,254.985949 L194.706537,254.985949 L194.706537,259.223224 L204.358107,259.223224 L204.358107,254.985949 L204.358107,254.985949 Z M184.466457,259.694032 L183.877948,263.813604 L194.118027,263.813604 L194.118027,259.694032 L184.466457,259.694032 L184.466457,259.694032 Z M180.817692,253.926631 C183.250215,251.337171 185.211896,248.551584 186.702796,245.569782 L187.291307,245.805187 C186.820497,246.746808 186.192758,247.806116 185.408074,248.983143 L194.941942,248.983143 L194.941942,249.453951 L185.054967,249.453951 C183.642536,251.651067 182.347826,253.259646 181.1708,254.279736 L180.817692,253.926631 L180.817692,253.926631 Z M194.118027,252.985013 C195.922801,250.866366 197.452913,248.43388 198.708409,245.687485 L199.179217,245.805187 C199.02228,246.119061 198.786878,246.629098 198.473004,247.335314 C198.080662,248.04153 197.806027,248.590801 197.64909,248.983143 L208.242276,248.983143 L208.242276,249.453951 L197.295983,249.453951 C196.432831,250.866383 195.530457,252.161093 194.588836,253.33812 L194.118027,252.985013 L194.118027,252.985013 Z M187.291307,250.630972 L187.762115,250.277866 L190.35156,252.985013 L189.880752,253.33812 L187.291307,250.630972 L187.291307,250.630972 Z M199.767727,250.748675 L200.238535,250.395567 L203.063386,252.985013 L202.592577,253.455822 L199.767727,250.748675 L199.767727,250.748675 Z M210.714019,258.399308 L238.491709,258.399308 L238.491709,258.987819 L210.714019,258.987819 L210.714019,258.399308 L210.714019,258.399308 Z M241.198857,250.51327 L245.200728,250.51327 C245.59307,249.414712 246.02464,247.923834 246.49545,246.040592 C246.573919,245.883655 246.613152,245.765954 246.613152,245.687485 L247.08396,245.805187 C246.848556,247.13915 246.416985,248.708496 245.789238,250.51327 L252.262851,250.51327 L252.262851,250.984078 L245.671536,250.984078 C244.572978,254.672096 243.592137,257.496916 242.728983,259.458627 L247.08396,259.458627 L247.08396,253.691226 L247.672471,253.691226 L247.672471,259.458627 L251.674341,259.458627 L251.674341,260.047138 L247.672471,260.047138 L247.672471,265.22603 L252.14515,264.637519 L252.262851,265.22603 L247.672471,265.814539 L247.672471,272.876664 L247.08396,272.876664 L247.08396,265.814539 L240.963453,266.756157 L240.845751,266.167646 L247.08396,265.343731 L247.08396,260.047138 L242.140473,260.047138 L242.140473,259.458627 C243.239031,256.633764 244.219872,253.808942 245.083026,250.984078 L241.198857,250.984078 L241.198857,250.51327 L241.198857,250.51327 Z M254.616893,256.633778 L255.205404,256.633778 L255.205404,263.460498 C258.736483,261.891129 261.914407,260.086382 264.739272,258.046203 L265.092377,258.517011 C262.816793,260.243317 259.521168,262.126531 255.205404,264.166711 L255.205404,268.050879 C255.126934,270.169527 256.068543,271.189601 258.030254,271.111134 L262.385229,271.111134 C264.503878,271.189601 265.60242,270.444162 265.680888,268.874794 C265.837825,267.619299 265.916293,266.442289 265.916293,265.343731 L266.504803,265.343731 C266.504803,266.599226 266.426335,267.776236 266.269398,268.874794 C266.190931,270.758036 264.89622,271.660409 262.385229,271.581942 L258.030254,271.581942 C255.676201,271.660409 254.538426,270.483401 254.616893,268.050879 L254.616893,256.633778 L254.616893,256.633778 Z M251.203533,256.986884 C255.126955,253.769678 258.069478,250.003249 260.031189,245.687485 L260.501997,245.92289 L260.148891,246.864506 C261.953666,250.787928 264.739253,254.201254 268.505738,257.104586 L268.152632,257.575395 C264.543084,254.75053 261.757495,251.415672 259.795784,247.570719 C257.755605,251.337204 255.048484,254.632828 251.674341,257.457692 L251.203533,256.986884 L251.203533,256.986884 Z M295.459512,264.990625 L295.93032,264.872923 L298.637468,272.405856 L298.16666,272.64126 L297.225044,270.169516 L286.161049,271.346537 L286.043347,270.758026 L292.046153,270.169516 L292.046153,262.165775 L288.044282,262.165775 L288.044282,264.637519 L287.455771,264.637519 L287.455771,252.161099 L292.046153,252.161099 L292.046153,245.805187 L292.634664,245.805187 L292.634664,252.161099 L297.225044,252.161099 L297.225044,262.165775 L292.634664,262.165775 L292.634664,270.051813 L297.107341,269.81641 L295.459512,264.990625 L295.459512,264.990625 Z M273.684629,251.454886 L283.453901,251.454886 L283.453901,256.516076 L273.684629,256.516076 L273.684629,251.454886 L273.684629,251.454886 Z M288.044282,252.749609 L288.044282,261.577264 L292.046153,261.577264 L292.046153,252.749609 L288.044282,252.749609 L288.044282,252.749609 Z M296.636533,252.749609 L292.634664,252.749609 L292.634664,261.577264 L296.636533,261.577264 L296.636533,252.749609 L296.636533,252.749609 Z M282.865391,251.925694 L274.155437,251.925694 L274.155437,255.927565 L282.865391,255.927565 L282.865391,251.925694 L282.865391,251.925694 Z M272.389907,259.576329 L284.630923,259.576329 L284.630923,269.934113 C284.70939,271.58195 283.885484,272.366622 282.159178,272.288153 L280.629051,272.170452 L280.629051,271.581942 L282.159178,271.699643 C283.493142,271.778112 284.12088,271.189608 284.042412,269.934113 L284.042412,260.16484 L272.978417,260.16484 L272.978417,272.405856 L272.389907,272.405856 L272.389907,259.576329 L272.389907,259.576329 Z M274.273139,265.696838 L278.981222,265.696838 C279.295096,265.147559 279.412797,264.95139 279.334329,265.108327 C280.432887,263.146616 281.099859,261.851907 281.335264,261.224159 L281.923775,261.459563 C281.296026,262.715059 280.511354,264.127469 279.569733,265.696838 L282.865391,265.696838 L282.865391,266.285349 L278.86352,266.285349 L278.86352,271.699643 L278.275011,271.699643 L278.275011,266.285349 L274.273139,266.285349 L274.273139,265.696838 L274.273139,265.696838 Z M271.801396,247.68842 L285.337134,247.68842 L285.337134,248.27693 L271.801396,248.27693 L271.801396,247.68842 L271.801396,247.68842 Z M275.214756,261.577264 L275.685564,261.341861 L277.804201,264.637519 L277.333393,264.990625 L275.214756,261.577264 L275.214756,261.577264 Z M305.581891,260.282542 L324.885031,260.282542 L324.885031,268.050879 L324.29652,268.050879 L324.29652,260.75335 L306.052699,260.75335 L306.052699,268.050879 L305.581891,268.050879 L305.581891,260.282542 L305.581891,260.282542 Z M309.112954,253.102715 C311.31007,250.827131 312.997116,248.316179 314.174142,245.569782 L314.762653,245.805187 C314.605716,246.197529 314.291848,246.825268 313.821036,247.68842 C313.585632,248.159231 313.389463,248.512333 313.232526,248.747738 L327.474476,248.747738 L327.474476,249.218548 L324.414223,253.33812 L323.943415,252.985013 L326.768265,249.218548 L312.87942,249.218548 C311.85933,250.709448 310.760788,252.161093 309.583762,253.573523 L309.112954,253.102715 L309.112954,253.102715 Z M308.171337,258.046203 C314.762686,256.084491 317.979843,253.848174 317.822906,251.337185 C317.901375,251.023311 317.940609,250.47404 317.940609,249.689356 L318.529119,249.689356 C318.529119,250.317103 318.489886,250.827141 318.411417,251.219483 C318.725291,253.965878 322.138617,256.241429 328.651497,258.046203 L328.416094,258.517011 C322.374023,256.869174 318.960697,254.868258 318.176013,252.514205 C317.548265,254.868258 314.291875,256.869174 308.406741,258.517011 L308.171337,258.046203 L308.171337,258.046203 Z M314.998057,264.990625 C315.154995,264.441346 315.233461,263.61744 315.233461,262.518882 L315.821971,262.518882 C315.821971,263.695908 315.743503,264.559048 315.586568,265.108327 C315.194224,268.639406 310.564657,271.228827 301.697723,272.876664 L301.580021,272.405856 C310.21155,270.758018 314.684183,268.286299 314.998057,264.990625 L314.998057,264.990625 Z M315.351163,267.462368 L315.586568,266.99156 L328.416094,272.405856 L328.180689,272.876664 L315.351163,267.462368 L315.351163,267.462368 Z M301.462318,258.399308 L306.994316,252.631907 L307.465125,252.985013 L301.933126,258.752416 L301.462318,258.399308 L301.462318,258.399308 Z M302.168531,246.746803 L302.639339,246.275995 L307.465125,250.160164 L307.112019,250.630972 L302.168531,246.746803 L302.168531,246.746803 Z M333.35958,272.405856 L333.35958,250.984078 L336.655238,250.984078 C337.04758,250.042457 337.636085,248.512346 338.42077,246.393698 C338.499238,246.079823 338.577705,245.844422 338.656173,245.687485 L339.244684,245.805187 C338.46,248.002303 337.793028,249.728583 337.243749,250.984078 L343.01115,250.984078 L343.01115,272.170452 L342.42264,272.170452 L342.42264,269.463304 L333.948091,269.463304 L333.948091,272.405856 L333.35958,272.405856 L333.35958,272.405856 Z M333.948091,251.572588 L333.948091,260.047138 L342.42264,260.047138 L342.42264,251.572588 L333.948091,251.572588 L333.948091,251.572588 Z M333.948091,260.635648 L333.948091,268.874794 L342.42264,268.874794 L342.42264,260.635648 L333.948091,260.635648 L333.948091,260.635648 Z M344.188171,256.516076 C346.463757,253.220402 348.229269,249.571674 349.484765,245.569782 L349.955573,245.805187 C349.484763,247.453024 348.857024,249.140071 348.07234,250.866375 L357.370803,250.866375 L357.017697,266.99156 C357.017697,270.444171 355.409119,272.131218 352.191912,272.05275 C350.073264,272.05275 348.582386,272.013515 347.719233,271.935047 L347.836935,271.346537 C349.563242,271.503474 351.014885,271.581942 352.191912,271.581942 C355.016777,271.660409 356.429187,270.130299 356.429187,266.99156 L356.782293,251.454886 L347.719233,251.454886 C346.777612,253.416597 345.757537,255.221345 344.658979,256.869182 L344.188171,256.516076 L344.188171,256.516076 Z M346.542213,257.693097 L347.013022,257.222289 L351.721104,263.225093 L351.250296,263.578201 L346.542213,257.693097 L346.542213,257.693097 Z M372.554371,249.218548 L373.142882,249.218548 L373.142882,256.751479 L379.616496,254.515141 L379.616496,245.805187 L380.205005,245.805187 L380.205005,254.279736 L387.620237,251.690291 L387.384832,260.282542 C387.306365,262.872 386.247055,264.088243 384.206876,263.931306 L381.970537,263.813604 L381.970537,263.225093 L384.206876,263.342796 C385.933181,263.499733 386.796322,262.479658 386.796322,260.282542 L387.031727,252.514205 L380.205005,254.985949 L380.205005,267.344667 L379.616496,267.344667 L379.616496,255.103652 L373.142882,257.33999 L373.142882,266.873857 C372.75054,270.012596 374.359119,271.385773 377.968667,270.993431 L383.618366,270.993431 C386.600167,271.150368 388.130278,270.130294 388.208746,267.933176 C388.365683,266.991555 388.444151,265.971481 388.444151,264.872923 L389.032662,264.872923 C389.032662,265.893013 388.954194,266.952321 388.797257,268.050879 C388.64032,270.561869 386.91404,271.738877 383.618366,271.581942 L377.968667,271.581942 C374.045244,271.974284 372.240497,270.404938 372.554371,266.873857 L372.554371,257.575395 L369.611819,258.634713 L369.376415,258.046203 L372.554371,256.986884 L372.554371,249.218548 L372.554371,249.218548 Z M362.078886,254.632842 L362.078886,254.044333 L365.845352,254.044333 L365.845352,245.687485 L366.433863,245.687485 L366.433863,254.044333 L370.435734,254.044333 L370.435734,254.632842 L366.433863,254.632842 L366.433863,267.109262 L371.024245,265.696838 L371.141945,266.285349 L361.490377,269.2279 L361.254972,268.639389 L365.845352,267.226965 L365.845352,254.632842 L362.078886,254.632842 L362.078886,254.632842 Z M392.092915,250.866375 L419.046691,250.866375 L419.046691,251.454886 L400.685167,251.454886 L400.449762,257.9285 L415.162522,257.9285 L414.691714,267.58007 C414.613244,270.483403 412.808497,271.85658 409.277418,271.699643 C407.001833,271.699643 405.471722,271.660409 404.687038,271.581942 L404.804739,270.993431 C405.510955,271.071899 407.001833,271.111134 409.277418,271.111134 C412.573092,271.268069 414.181671,270.091061 414.103203,267.58007 L414.574011,258.399308 L400.449762,258.399308 C400.371294,264.755253 397.585707,269.659457 392.092915,273.112068 L391.739809,272.64126 C397.311069,269.267117 400.057423,263.931343 399.978954,256.633778 L400.096656,251.454886 L392.092915,251.454886 L392.092915,250.866375 L392.092915,250.866375 Z M403.510017,245.92289 L403.980825,245.569782 L407.158781,250.160164 L406.687973,250.51327 L403.510017,245.92289 L403.510017,245.92289 Z" id="创业公司完成第一轮融资的地方"></path>
        </g>
    </g>
</svg>